<svg width="20" height="20" viewBox="0 0 20 20" fill="none" xmlns="http://www.w3.org/2000/svg">
<path d="M18.9583 10C18.9583 14.9417 14.9416 18.9584 9.99996 18.9584C5.05829 18.9584 1.04163 14.9417 1.04163 10C1.04163 5.05838 5.05829 1.04171 9.99996 1.04171C14.9416 1.04171 18.9583 5.05838 18.9583 10ZM2.29163 10C2.29163 14.25 5.74996 17.7084 9.99996 17.7084C14.25 17.7084 17.7083 14.25 17.7083 10C17.7083 5.75004 14.25 2.29171 9.99996 2.29171C5.74996 2.29171 2.29163 5.75004 2.29163 10Z" fill="white"/>
<path d="M12.7084 10C12.7084 10.3417 12.425 10.625 12.0834 10.625L7.08337 10.625C6.74171 10.625 6.45837 10.3417 6.45837 10C6.45837 9.65833 6.74171 9.375 7.08337 9.375L12.0834 9.375C12.425 9.375 12.7084 9.65833 12.7084 10Z" fill="white"/>
<path d="M13.5416 10C13.5416 10.1583 13.4833 10.3167 13.3583 10.4417L10.8583 12.9417C10.6166 13.1833 10.2166 13.1833 9.97495 12.9417C9.73328 12.7 9.73328 12.3 9.97495 12.0583L12.0333 10L9.97495 7.94168C9.73328 7.70001 9.73328 7.30001 9.97495 7.05834C10.2166 6.81668 10.6166 6.81668 10.8583 7.05834L13.3583 9.55834C13.4833 9.68334 13.5416 9.84168 13.5416 10Z" fill="white"/>
</svg>
