<svg width="22" height="22" viewBox="0 0 22 22" fill="none" xmlns="http://www.w3.org/2000/svg">
<g clip-path="url(#clip0_38_30169)">
<path d="M11 7.33337C10.0275 7.33337 9.09489 7.71968 8.40725 8.40732C7.71962 9.09495 7.33331 10.0276 7.33331 11C7.33331 11.9725 7.71962 12.9051 8.40725 13.5928C9.09489 14.2804 10.0275 14.6667 11 14.6667C11.9724 14.6667 12.9051 14.2804 13.5927 13.5928C14.2803 12.9051 14.6666 11.9725 14.6666 11C14.6666 10.0276 14.2803 9.09495 13.5927 8.40732C12.9051 7.71968 11.9724 7.33337 11 7.33337Z" fill="black"/>
<path fill-rule="evenodd" clip-rule="evenodd" d="M6.6 0C4.84957 0 3.17084 0.695355 1.9331 1.9331C0.695355 3.17084 0 4.84957 0 6.6L0 15.4C0 17.1504 0.695355 18.8292 1.9331 20.0669C3.17084 21.3046 4.84957 22 6.6 22H15.4C17.1504 22 18.8292 21.3046 20.0669 20.0669C21.3046 18.8292 22 17.1504 22 15.4V6.6C22 4.84957 21.3046 3.17084 20.0669 1.9331C18.8292 0.695355 17.1504 0 15.4 0L6.6 0ZM5.86667 11C5.86667 9.63856 6.4075 8.33287 7.37019 7.37019C8.33287 6.4075 9.63856 5.86667 11 5.86667C12.3614 5.86667 13.6671 6.4075 14.6298 7.37019C15.5925 8.33287 16.1333 9.63856 16.1333 11C16.1333 12.3614 15.5925 13.6671 14.6298 14.6298C13.6671 15.5925 12.3614 16.1333 11 16.1333C9.63856 16.1333 8.33287 15.5925 7.37019 14.6298C6.4075 13.6671 5.86667 12.3614 5.86667 11ZM16.1333 5.86667H17.6V4.4H16.1333V5.86667Z" fill="black"/>
</g>
<defs>
<clipPath id="clip0_38_30169">
<rect width="22" height="22" fill="white"/>
</clipPath>
</defs>
</svg>
