<svg width="1622" height="196" viewBox="0 0 1622 196" fill="none" xmlns="http://www.w3.org/2000/svg">
<path d="M1614.52 81.1293C1610.18 73.1492 1603.78 66.4891 1595.98 61.8491C1588.19 57.2091 1579.29 54.7607 1570.23 54.7614H1516.32C1507.26 54.7586 1498.36 57.2063 1490.57 61.8466C1482.78 66.487 1476.38 73.1483 1472.04 81.1293C1467.99 88.5447 1465.88 96.8655 1465.89 105.32V144.647C1465.88 152.851 1467.87 160.934 1471.68 168.192C1475.96 176.348 1482.38 183.176 1490.25 187.94C1498.12 192.704 1507.13 195.221 1516.32 195.22H1618.56L1608.49 177.531L1603.18 168.207H1517.49C1510.39 168.207 1503.58 165.38 1498.56 160.348C1493.54 155.316 1490.72 148.491 1490.71 141.373V136.868H1620.6V105.335C1620.63 96.8827 1618.54 88.5587 1614.52 81.1293ZM1488.9 111.807V107.978C1488.9 100.86 1491.72 94.033 1496.74 88.9984C1501.76 83.9637 1508.56 81.1333 1515.66 81.1293H1567.19C1574.29 81.1333 1581.09 83.9637 1586.11 88.9984C1591.13 94.033 1593.95 100.86 1593.95 107.978V111.807H1488.9Z" fill="white" stroke="white" stroke-width="0.849412" stroke-miterlimit="10"/>
<path d="M145.473 78.9072C141.258 70.8322 134.919 64.0692 127.142 59.3519C119.365 54.6347 110.449 52.1436 101.36 52.1488H13.4328L28.6613 78.9072H96.044C103.474 78.9072 110.6 81.8672 115.855 87.1359C121.109 92.4047 124.06 99.5508 124.06 107.002V111.131H42.4972C34.1851 111.12 26.0598 113.604 19.1679 118.264C13.4514 122.099 8.76616 127.288 5.52741 133.373C2.28866 139.457 0.596334 146.249 0.600198 153.146C0.578364 158.516 1.5954 163.84 3.59498 168.822C5.70047 174.082 8.84855 178.858 12.8488 182.862C16.7319 186.772 21.3481 189.873 26.4313 191.986C31.5146 194.099 36.9645 195.183 42.4673 195.175H151.073V102.077C151.106 94.0126 149.184 86.0612 145.473 78.9072ZM123.985 168.822H43.4106C41.3164 168.822 39.2427 168.409 37.3079 167.605C35.3731 166.801 33.6151 165.623 32.1343 164.138C30.6535 162.653 29.4788 160.891 28.6774 158.95C27.876 157.01 27.4633 154.931 27.4633 152.83C27.457 150.729 27.8669 148.648 28.6688 146.707C29.4708 144.766 30.649 143.004 32.1352 141.524C33.6124 140.034 35.3696 138.853 37.305 138.048C39.2404 137.244 41.3157 136.833 43.4106 136.839H123.985V168.822Z" fill="white"/>
<path d="M359.42 81.1294V138.19C359.418 142.22 360.208 146.211 361.744 149.934C363.281 153.658 365.534 157.042 368.375 159.892C371.216 162.742 374.589 165.003 378.301 166.546C382.014 168.088 385.993 168.882 390.012 168.882H400.359V195.235H385.055C376.066 195.252 367.229 192.912 359.42 188.448C351.309 183.802 344.587 177.061 339.954 168.927C335.504 161.09 333.17 152.224 333.186 143.205V15.1345L359.48 0.749268V54.8065H400.419V81.1745L359.42 81.1294Z" fill="white"/>
<path d="M319.647 153.506C319.66 158.76 318.675 163.969 316.743 168.852C313.674 176.628 308.345 183.298 301.447 187.997C294.55 192.697 286.404 195.208 278.065 195.205H171.63V193.704L185.721 168.912H278.005C280.015 168.918 282.006 168.523 283.862 167.749C285.718 166.976 287.402 165.84 288.816 164.408C290.246 162.991 291.379 161.302 292.151 159.44C292.922 157.579 293.316 155.582 293.308 153.566C293.308 149.496 291.696 145.593 288.826 142.715C285.956 139.837 282.064 138.22 278.005 138.22H206.13C199.292 138.227 192.559 136.541 186.527 133.311C180.496 130.081 175.353 125.408 171.555 119.705C166.971 112.849 164.53 104.776 164.548 96.5207C164.533 91.2714 165.519 86.0677 167.452 81.1895C169.543 75.8829 172.698 71.0634 176.721 67.0295C180.581 63.1544 185.166 60.0813 190.212 57.9864C195.259 55.8915 200.668 54.816 206.13 54.8216H316.293L299.313 81.1294H205.965C203.957 81.1274 201.967 81.5225 200.11 82.2921C198.254 83.0617 196.566 84.1907 195.145 85.6145C193.724 87.0384 192.596 88.7291 191.827 90.5902C191.058 92.4512 190.662 94.446 190.662 96.4606C190.659 98.478 191.055 100.476 191.826 102.339C192.597 104.202 193.728 105.894 195.154 107.317C196.574 108.746 198.261 109.879 200.119 110.652C201.977 111.425 203.969 111.823 205.98 111.822H278.05C283.512 111.815 288.922 112.889 293.969 114.984C299.015 117.079 303.6 120.153 307.459 124.03C308.941 125.524 310.313 127.125 311.562 128.82C316.823 135.968 319.657 144.621 319.647 153.506Z" fill="white"/>
<path d="M531.678 52.1787L525.344 63.3054L516.435 78.907H471.154C463.322 78.907 455.811 82.0268 450.274 87.58C444.736 93.1332 441.625 100.665 441.625 108.518V195.175H413.818V105.485C413.8 96.1677 416.232 87.0102 420.871 78.937C425.789 70.3759 432.972 63.3447 441.625 58.6204C449.417 54.3704 458.151 52.1551 467.021 52.1787H531.678Z" fill="white"/>
<path d="M644.897 195.205H576.332C562.262 195.189 548.774 189.574 538.83 179.594C528.886 169.613 523.298 156.082 523.294 141.974V108.803C523.322 94.7101 528.92 81.2028 538.862 71.2416C548.804 61.2804 562.278 55.678 576.332 55.6621H644.882C658.945 55.678 672.428 61.2861 682.374 71.2566C692.319 81.2271 697.915 94.7461 697.935 108.848V141.974C697.927 156.081 692.338 169.609 682.395 179.589C672.451 189.569 658.966 195.185 644.897 195.205ZM576.332 81.9099C569.183 81.9099 562.328 84.7576 557.273 89.8264C552.218 94.8953 549.379 101.77 549.379 108.939V141.974C549.379 149.142 552.218 156.017 557.273 161.086C562.328 166.155 569.183 169.002 576.332 169.002H644.882C652.031 169.002 658.886 166.155 663.941 161.086C668.996 156.017 671.835 149.142 671.835 141.974V108.803C671.835 101.635 668.996 94.7601 663.941 89.6912C658.886 84.6224 652.031 81.7747 644.882 81.7747L576.332 81.9099Z" fill="white"/>
<path d="M1257.64 78.9072C1253.43 70.8324 1247.1 64.0689 1239.32 59.3515C1231.55 54.6341 1222.63 52.143 1213.55 52.1488H1125.62L1140.85 78.9072H1208.14C1215.57 78.9072 1222.7 81.8667 1227.96 87.135C1233.21 92.4034 1236.17 99.5494 1236.17 107.002V111.131H1154.61C1146.29 111.12 1138.16 113.604 1131.26 118.264C1125.55 122.1 1120.87 127.29 1117.63 133.374C1114.39 139.459 1112.71 146.25 1112.71 153.146C1112.7 158.516 1113.71 163.838 1115.71 168.822C1117.82 174.083 1120.97 178.859 1124.98 182.862C1128.86 186.772 1133.47 189.873 1138.56 191.986C1143.64 194.099 1149.09 195.183 1154.59 195.175H1263.3V102.077C1263.33 94.0066 1261.38 86.0529 1257.64 78.9072ZM1236.17 168.822H1155.58C1153.49 168.822 1151.41 168.409 1149.48 167.605C1147.54 166.801 1145.79 165.623 1144.31 164.139C1142.83 162.654 1141.65 160.891 1140.85 158.95C1140.05 157.01 1139.63 154.931 1139.63 152.83C1139.63 150.73 1140.04 148.65 1140.84 146.709C1141.65 144.769 1142.82 143.006 1144.31 141.524C1145.78 140.034 1147.54 138.854 1149.48 138.05C1151.41 137.246 1153.49 136.834 1155.58 136.839H1236.17V168.822Z" fill="white"/>
<path d="M946.713 81.1294V138.19C946.713 142.22 947.505 146.212 949.043 149.935C950.581 153.659 952.835 157.043 955.677 159.893C958.52 162.743 961.893 165.004 965.607 166.546C969.32 168.088 973.3 168.882 977.32 168.882H987.652V195.235H972.363C963.369 195.253 954.527 192.913 946.713 188.448C938.602 183.802 931.88 177.061 927.247 168.927C922.808 161.086 920.481 152.222 920.493 143.205V15.1345L946.773 0.749268V54.8065H987.711V81.1745L946.713 81.1294Z" fill="white"/>
<path d="M1118.99 52.1785L1112.65 63.3053L1103.76 78.9068H1058.49C1050.66 78.9068 1043.15 82.0266 1037.61 87.5799C1032.07 93.1331 1028.96 100.665 1028.96 108.518V195.175H1001.16V105.485C1001.14 96.1663 1003.58 87.0089 1008.22 78.9369C1013.14 70.3797 1020.32 63.3493 1028.96 58.6203C1036.75 54.3781 1045.47 52.1632 1054.33 52.1785H1118.99Z" fill="white"/>
<path d="M1426.2 15.0595V63.591C1417.83 58.3887 1408.18 55.6372 1398.33 55.6476H1329.78C1315.71 55.6476 1302.21 61.2527 1292.27 71.2299C1282.32 81.2071 1276.73 94.739 1276.73 108.849V141.974C1276.73 156.084 1282.32 169.616 1292.27 179.593C1302.21 189.57 1315.71 195.175 1329.78 195.175H1405.53C1411.7 195.177 1417.8 193.961 1423.5 191.596C1429.2 189.231 1434.37 185.764 1438.73 181.392C1443.09 177.02 1446.55 171.83 1448.91 166.118C1451.26 160.405 1452.48 154.283 1452.48 148.101V0.644287L1426.2 15.0595ZM1329.78 169.003C1322.63 169.003 1315.78 166.155 1310.72 161.086C1305.67 156.017 1302.83 149.142 1302.83 141.974V108.819C1302.83 101.65 1305.67 94.7756 1310.72 89.7067C1315.78 84.6379 1322.63 81.7902 1329.78 81.7902H1398.4C1405.55 81.7902 1412.41 84.6379 1417.46 89.7067C1422.52 94.7756 1425.36 101.65 1425.36 108.819V141.974C1425.36 149.142 1422.52 156.017 1417.46 161.086C1412.41 166.155 1405.55 169.003 1398.4 169.003H1329.78Z" fill="white"/>
<path d="M825.288 123.294L895.276 193.463C885.593 195.89 875.451 195.781 865.822 193.148C856.2 190.462 847.432 185.331 840.366 178.252L805.432 143.235L770.528 178.252C763.459 185.327 754.692 190.457 745.072 193.148H744.878C735.29 195.757 725.195 195.855 715.559 193.434L785.547 123.264L715.589 53.1098C725.277 50.6868 735.423 50.7954 745.057 53.4252C754.681 56.1062 763.451 61.2376 770.513 68.3209L805.432 103.338L840.292 68.396C847.358 61.3175 856.125 56.1869 865.747 53.5002H865.942C875.534 50.8838 885.635 50.7855 895.276 53.2149L825.288 123.294Z" fill="#16205B"/>
</svg>
