<svg width="241" height="241" viewBox="0 0 241 241" fill="none" xmlns="http://www.w3.org/2000/svg">
<path d="M75.1797 116.924C56.6937 114.031 38.5399 109.98 21.7149 101.391C15.2045 98.0688 9.22882 94.0054 4.50908 88.285C2.39836 85.7246 1.34503 82.6537 0 79.7125V73.6072C2.38215 64.8564 8.57252 59.3305 15.9256 54.7849C16.9425 54.87 16.4766 55.4899 16.2578 55.8828C15.6461 56.9767 14.7872 57.9004 14.0255 58.8889C10.9425 62.8875 10.8412 67.2953 13.6852 71.4843C15.796 74.5917 18.644 76.8847 21.7919 78.8171C31.6527 84.8617 42.5628 88.131 53.7038 90.7603C65.6632 93.5841 77.813 95.2775 90.0398 96.3227C96.4084 96.8697 102.793 97.3842 109.198 97.3842C110.134 97.3842 111.074 97.3842 111.998 97.6029C117.613 98.1539 123.256 98.0324 128.851 97.6678C133.619 97.3599 138.376 97.3882 143.136 97.3396C157.733 97.1897 172.115 95.3707 186.298 91.9473C192.776 90.3836 198.934 87.8718 205.137 85.4977C206.413 85.0764 207.624 84.493 208.876 84.0028C213.754 81.6895 218.648 79.4127 222.849 75.9124C224.494 74.539 225.896 72.9833 227.07 71.221C229.765 67.1859 229.513 62.7214 226.515 58.7916C225.588 57.5763 224.251 56.5959 224.016 54.9267C224.008 54.8781 224.101 54.8011 224.162 54.7566C224.271 54.6674 224.413 54.6796 224.571 54.7768C229.319 57.5965 233.548 61.0442 236.757 65.5573C242.469 73.591 241.517 82.6659 234.476 90.0473C228.253 96.5739 220.601 100.901 212.457 104.409C197.374 110.907 181.481 114.452 165.317 116.907C160.633 118.99 155.557 118.815 150.631 119.326C138.12 120.622 125.557 121.165 112.982 120.792C101.513 120.452 90.0681 119.638 78.6881 118.102C77.3998 117.928 76.3789 117.207 75.1797 116.907V116.924Z" fill="#231C60"/>
<path d="M205.223 213.157C205.167 212.853 205.158 212.529 205.041 212.254C200.277 201.129 195.508 190.008 190.732 178.891C182.139 158.878 173.55 138.861 164.929 118.86C164.569 118.025 164.463 117.429 165.318 116.931C153.403 118.621 141.424 119.641 129.399 119.99C111.242 120.521 93.1689 119.447 75.1812 116.931C76.3965 117.632 75.7038 118.442 75.3432 119.273C70.9233 129.527 66.5074 139.78 62.1117 150.042C55.2245 166.114 48.3373 182.189 41.4785 198.273C39.3678 203.219 37.3422 208.198 35.2801 213.161C31.7068 217.999 32.2051 221.479 36.9937 225.153C37.3665 225.437 37.7594 225.7 38.1443 225.963C43.0585 229.314 48.6128 231.194 54.2563 232.798C68.0793 236.732 82.2669 238.401 96.5517 239.454C98.5125 239.6 100.567 239.349 102.406 240.358H103.346C104.286 239.847 105.298 240.24 106.271 240.114C107.146 240.114 108.021 240.114 108.896 240.114C109.86 240.24 110.869 239.847 111.801 240.358H115.09C116.188 239.973 117.282 239.973 118.38 240.358H122.14C123.079 239.973 124.019 239.973 124.959 240.358H128.249C129.327 239.843 130.473 240.236 131.579 240.114C132.454 240.114 133.325 240.114 134.2 240.114C135.031 240.228 135.91 239.863 136.704 240.358H137.644C139.742 239.422 142.007 239.604 144.207 239.442C157.159 238.49 170.038 236.999 182.646 233.774C189.918 231.915 197.145 229.816 203.323 225.279C208.323 221.608 208.849 218.059 205.235 213.161L205.223 213.157Z" fill="#E1EAF9"/>
<path d="M226.224 57.487C225.583 56.778 224.279 56.1825 224.571 54.7888C221.528 52.7186 218.352 50.8713 215.083 49.1859C205.489 44.2434 195.231 41.1968 184.722 39.0942C181.173 38.3852 179.257 36.8538 177.474 33.6857C163.716 9.24433 138.003 -3.42808 110.316 0.805513C88.1436 4.19644 72.0519 16.407 61.6564 36.1894C61.0122 37.417 60.2951 38.0773 58.9298 38.369C54.8097 39.2522 50.6936 40.1921 46.622 41.2697C35.6876 44.1623 25.3082 48.3473 15.9295 54.7888C15.8809 56.381 14.5399 57.1872 13.6811 58.2203C10.2132 62.3891 10.0714 67.8178 13.3286 72.1769C17.9187 78.3227 24.5223 81.5314 31.2839 84.3875C44.3452 89.9054 58.1074 92.7615 72.0803 94.8196C85.2551 96.7642 98.4866 97.8621 111.795 98.0525C112.5 98.7898 113.416 98.4617 114.242 98.4941C122.519 98.8141 130.779 98.1457 139.048 98.016C143.565 97.9472 148.074 97.9512 152.6 97.6879C160.763 97.2098 168.821 96.0957 176.851 94.7223C186.857 93.0167 196.491 90.031 205.74 85.8298C206.53 85.056 207.786 84.983 208.483 84.0675C208.483 84.3267 208.609 84.4888 209.038 84.428C214.908 82.0297 220.548 79.21 225.089 74.6685C230.011 69.7462 231.596 63.4626 226.228 57.4911L226.224 57.487ZM119.89 97.6231C119.89 97.6231 119.865 97.6068 119.853 97.5987C120.25 97.7284 120.647 97.7811 121.044 97.8013C120.639 97.8216 120.234 97.8783 119.833 98.016C119.898 97.9107 119.918 97.7811 119.89 97.6231ZM121.931 97.8013C122.543 97.777 123.135 97.7284 123.686 97.7973C123.135 97.8742 122.543 97.8256 121.931 97.8013Z" fill="#4C37F4"/>
<path d="M205.736 85.8295C206.328 84.6789 207.608 84.5574 208.56 83.9497C208.718 84.1077 208.876 84.2657 209.03 84.4237C208.001 85.0557 206.915 85.5581 205.732 85.8295H205.736Z" fill="#516A91"/>
<path d="M131.112 54.5252C131.112 60.5495 126.242 65.4475 120.251 65.4434C114.255 65.4434 109.389 60.5454 109.393 54.5212C109.393 48.4807 114.259 43.5868 120.255 43.5908C126.25 43.5908 131.112 48.4888 131.112 54.5293V54.5252Z" fill="#E1EAF9"/>
<path d="M76.0757 32.673C83.129 33.0741 87.0588 37.0038 87.4396 44.0368C86.763 49.8261 82.8941 53.9665 77.7773 54.3757C72.1217 54.8295 67.5721 51.7748 66.0407 46.496C64.1042 39.8154 68.6619 33.5359 76.0717 32.6689L76.0757 32.673Z" fill="#E1EAF9"/>
<path d="M174.817 43.4857C174.862 49.591 170.15 54.3999 164.077 54.4404C157.984 54.4809 153.139 49.7449 153.098 43.7004C153.058 37.6438 157.842 32.762 163.863 32.7214C169.956 32.6809 174.769 37.4128 174.813 43.4857H174.817Z" fill="#E1EAF9"/>
<path d="M119.771 97.5747H123.441C123.441 97.7246 123.45 97.8786 123.454 98.0284C122.226 98.0284 121.003 98.0284 119.775 98.0284C119.775 97.8786 119.775 97.7246 119.775 97.5747H119.771Z" fill="#536B92"/>
<path d="M120.255 240.354C168.475 240.354 207.565 230.503 207.565 218.351C207.565 206.199 168.475 196.349 120.255 196.349C72.0359 196.349 32.9463 206.199 32.9463 218.351C32.9463 230.503 72.0359 240.354 120.255 240.354Z" fill="#4C37F4"/>
</svg>
