<svg width="18" height="20" viewBox="0 0 18 20" fill="none" xmlns="http://www.w3.org/2000/svg">
<path d="M17.7358 13.6026C17.5891 13.3551 17.1766 12.9701 16.15 13.1534C15.5816 13.2543 15.0041 13.3001 14.4266 13.2726C12.2908 13.1809 10.3566 12.2001 9.00914 10.6876C7.81748 9.35842 7.08414 7.62592 7.07498 5.75592C7.07498 4.71092 7.27664 3.70259 7.68914 2.74925C8.09248 1.82342 7.80831 1.33759 7.60664 1.13592C7.39581 0.925086 6.90081 0.631753 5.92914 1.03509C2.17998 2.61175 -0.13919 6.37009 0.13581 10.3943C0.41081 14.1801 3.06914 17.4159 6.58914 18.6351C7.43248 18.9284 8.32164 19.1026 9.23831 19.1393C9.38498 19.1484 9.53164 19.1576 9.67831 19.1576C12.7491 19.1576 15.6275 17.7093 17.4425 15.2434C18.0566 14.3909 17.8916 13.8501 17.7358 13.6026Z" fill="white"/>
</svg>
