<svg width="22" height="22" viewBox="0 0 22 22" fill="none" xmlns="http://www.w3.org/2000/svg">
<path d="M10.9999 17.4167C14.5437 17.4167 17.4166 14.5439 17.4166 11C17.4166 7.45621 14.5437 4.58337 10.9999 4.58337C7.45609 4.58337 4.58325 7.45621 4.58325 11C4.58325 14.5439 7.45609 17.4167 10.9999 17.4167Z" fill="white"/>
<path d="M11.0001 21.0466C10.4959 21.0466 10.0834 20.6708 10.0834 20.1666V20.0933C10.0834 19.5891 10.4959 19.1766 11.0001 19.1766C11.5042 19.1766 11.9167 19.5891 11.9167 20.0933C11.9167 20.5975 11.5042 21.0466 11.0001 21.0466ZM17.5451 18.4616C17.3067 18.4616 17.0776 18.37 16.8942 18.1958L16.7751 18.0766C16.4176 17.7191 16.4176 17.1416 16.7751 16.7841C17.1326 16.4266 17.7101 16.4266 18.0676 16.7841L18.1867 16.9033C18.5442 17.2608 18.5442 17.8383 18.1867 18.1958C18.0126 18.37 17.7834 18.4616 17.5451 18.4616ZM4.45508 18.4616C4.21675 18.4616 3.98758 18.37 3.80425 18.1958C3.44675 17.8383 3.44675 17.2608 3.80425 16.9033L3.92341 16.7841C4.28092 16.4266 4.85841 16.4266 5.21591 16.7841C5.57341 17.1416 5.57341 17.7191 5.21591 18.0766L5.09675 18.1958C4.92258 18.37 4.68425 18.4616 4.45508 18.4616ZM20.1667 11.9166H20.0934C19.5892 11.9166 19.1767 11.5041 19.1767 11C19.1767 10.4958 19.5892 10.0833 20.0934 10.0833C20.5976 10.0833 21.0467 10.4958 21.0467 11C21.0467 11.5041 20.6709 11.9166 20.1667 11.9166ZM1.90675 11.9166H1.83341C1.32925 11.9166 0.916748 11.5041 0.916748 11C0.916748 10.4958 1.32925 10.0833 1.83341 10.0833C2.33758 10.0833 2.78675 10.4958 2.78675 11C2.78675 11.5041 2.41091 11.9166 1.90675 11.9166ZM17.4259 5.49079C17.1876 5.49079 16.9584 5.39913 16.7751 5.22496C16.4176 4.86746 16.4176 4.28996 16.7751 3.93246L16.8942 3.81329C17.2517 3.45579 17.8292 3.45579 18.1867 3.81329C18.5442 4.17079 18.5442 4.74829 18.1867 5.10579L18.0676 5.22496C17.8934 5.39913 17.6642 5.49079 17.4259 5.49079ZM4.57425 5.49079C4.33591 5.49079 4.10675 5.39913 3.92341 5.22496L3.80425 5.09663C3.44675 4.73913 3.44675 4.16163 3.80425 3.80413C4.16175 3.44663 4.73925 3.44663 5.09675 3.80413L5.21591 3.92329C5.57341 4.28079 5.57341 4.85829 5.21591 5.21579C5.04175 5.39913 4.80341 5.49079 4.57425 5.49079ZM11.0001 2.78663C10.4959 2.78663 10.0834 2.41079 10.0834 1.90663V1.83329C10.0834 1.32913 10.4959 0.916626 11.0001 0.916626C11.5042 0.916626 11.9167 1.32913 11.9167 1.83329C11.9167 2.33746 11.5042 2.78663 11.0001 2.78663Z" fill="white"/>
</svg>
